<svg xmlns="http://www.w3.org/2000/svg" viewBox="0 0 1410 514" role="img" aria-labelledby="title desc"><title id="title">AlmaGo</title><desc id="desc">AlmaGo international education logo</desc><path d=" M 125 286 L 131 286 L 136 290 L 138 291 L 143 292 L 143 294 L 153 293 L 150 291 L 144 291 L 139 287 L 131 284 L 129 284 L 128 285 Z  M 278 185 L 277 183 L 266 185 L 267 189 L 270 190 L 276 188 Z  M 331 171 L 324 171 L 320 173 L 317 176 L 312 186 L 305 191 L 304 193 L 305 199 L 307 200 L 311 198 L 314 202 L 311 205 L 310 202 L 308 204 L 309 209 L 306 212 L 296 216 L 297 212 L 294 210 L 292 206 L 293 203 L 291 201 L 291 199 L 289 201 L 287 201 L 286 208 L 283 208 L 280 210 L 278 216 L 283 215 L 285 213 L 286 209 L 290 210 L 287 214 L 288 216 L 286 218 L 292 217 L 295 220 L 287 224 L 292 228 L 292 233 L 290 235 L 283 234 L 278 235 L 278 241 L 276 244 L 277 249 L 280 249 L 282 251 L 282 254 L 274 261 L 273 266 L 265 272 L 258 283 L 258 293 L 256 297 L 257 305 L 262 310 L 262 312 L 270 319 L 284 318 L 290 315 L 295 315 L 297 318 L 304 319 L 305 322 L 303 325 L 303 330 L 308 338 L 308 345 L 339 329 L 375 304 L 371 303 L 360 288 L 359 281 L 355 274 L 355 269 L 360 273 L 373 298 L 390 289 L 398 279 L 396 272 L 401 271 L 403 272 L 405 271 L 407 267 L 397 238 L 389 223 L 377 206 L 353 182 L 349 179 L 343 185 L 342 181 L 343 181 L 343 177 L 332 173 Z  M 384 268 L 387 267 L 391 271 L 391 274 L 389 274 L 385 270 Z  M 283 250 L 287 250 L 290 249 L 293 246 L 293 243 L 298 239 L 298 237 L 300 235 L 306 235 L 310 233 L 315 239 L 319 241 L 322 245 L 320 247 L 316 248 L 319 249 L 323 245 L 323 242 L 325 241 L 321 239 L 316 234 L 318 231 L 321 234 L 325 236 L 328 239 L 328 242 L 330 244 L 330 247 L 333 249 L 335 246 L 334 243 L 337 240 L 340 241 L 340 245 L 341 247 L 344 250 L 347 250 L 348 249 L 353 250 L 354 249 L 357 250 L 356 257 L 353 261 L 344 262 L 343 261 L 339 261 L 332 258 L 330 259 L 328 263 L 324 263 L 318 259 L 315 259 L 313 258 L 311 255 L 312 251 L 311 249 L 296 251 L 293 253 L 290 254 L 284 254 Z  M 342 234 L 344 230 L 349 230 L 349 231 L 352 233 L 355 230 L 361 239 L 356 239 L 352 237 L 350 237 L 347 239 L 342 238 Z  M 328 183 L 328 187 L 326 189 L 326 193 L 332 198 L 329 199 L 329 202 L 327 202 L 326 208 L 321 208 L 320 209 L 316 206 L 319 205 L 320 200 L 322 198 L 322 195 L 320 193 L 320 190 L 323 188 L 324 186 L 324 184 Z  M 286 150 L 269 146 L 239 148 L 231 146 L 199 153 L 192 162 L 188 162 L 188 160 L 177 163 L 185 164 L 191 168 L 169 168 L 166 172 L 167 177 L 161 180 L 155 178 L 161 174 L 157 173 L 151 177 L 151 180 L 140 184 L 105 221 L 109 226 L 90 247 L 80 276 L 83 286 L 82 293 L 94 301 L 103 301 L 113 306 L 119 315 L 130 317 L 130 326 L 123 335 L 122 345 L 132 363 L 143 370 L 147 411 L 169 402 L 171 396 L 175 395 L 181 387 L 185 377 L 198 371 L 202 355 L 211 344 L 210 338 L 203 334 L 187 331 L 182 321 L 172 318 L 159 309 L 145 309 L 144 307 L 133 314 L 122 313 L 121 300 L 114 299 L 119 289 L 116 288 L 109 294 L 102 295 L 98 290 L 101 277 L 110 270 L 117 271 L 123 268 L 131 271 L 130 276 L 133 280 L 136 266 L 147 259 L 157 246 L 172 236 L 176 239 L 189 232 L 182 232 L 184 223 L 198 224 L 193 229 L 203 230 L 200 223 L 203 215 L 198 210 L 197 200 L 193 203 L 189 202 L 189 197 L 186 194 L 180 194 L 173 203 L 173 207 L 157 220 L 158 212 L 145 205 L 152 196 L 166 189 L 172 193 L 173 189 L 178 189 L 175 187 L 176 184 L 181 183 L 186 176 L 193 174 L 197 179 L 191 186 L 184 189 L 189 188 L 196 195 L 201 192 L 204 185 L 207 187 L 211 184 L 207 178 L 208 173 L 202 167 L 193 166 L 195 164 L 202 164 L 202 161 L 219 153 L 224 155 L 218 157 L 219 160 L 227 159 L 231 163 L 229 177 L 224 183 L 224 192 L 230 198 L 234 197 L 241 186 L 269 175 L 276 155 Z  M 182 170 L 179 174 L 180 178 L 174 180 L 174 177 L 172 174 L 176 170 L 178 169 Z  M 309 69 L 362 92 L 363 123 L 377 123 L 397 127 L 411 132 L 423 138 L 435 147 L 438 147 L 457 139 L 465 137 L 467 96 L 475 94 L 496 86 L 498 84 L 496 80 L 497 77 L 499 76 L 503 76 L 506 79 L 506 81 L 509 81 L 526 74 L 525 71 L 461 43 L 416 22 L 411 23 L 381 36 Z" fill="#1C2124" fill-rule="evenodd" clip-rule="evenodd"/><path d="M 432 205 L 433 233 L 428 252 L 421 267 L 403 292 L 369 322 L 333 344 L 294 363 L 180 408 L 107 441 L 69 463 L 30 492 L 159 492 L 179 473 L 214 446 L 350 363 L 379 341 L 403 318 L 414 305 L 428 283 L 438 252 L 438 228 Z M 417 149 L 392 138 L 362 133 L 383 143 L 400 155 L 423 180 L 438 208 L 444 230 L 445 250 L 441 272 L 427 304 L 412 325 L 383 355 L 341 388 L 261 445 L 223 481 L 214 493 L 253 493 L 288 488 L 320 478 L 350 464 L 378 446 L 408 421 L 434 392 L 454 362 L 469 330 L 478 299 L 481 278 L 479 238 L 469 207 L 456 185 L 435 162 Z" fill="#DB0423" fill-rule="evenodd" clip-rule="evenodd"/><path d="M 213 492 L 216 489 L 213 492 L 213 494 L 250 494 Z M 29 492 L 158 493 L 30 491 L 32 489 Z M 170 396 L 172 400 L 170 402 L 172 400 L 172 397 Z M 161 309 L 165 311 L 164 309 Z M 148 307 L 144 306 L 144 311 L 145 308 Z M 143 289 L 143 295 L 148 295 L 143 292 L 144 291 L 150 290 L 152 291 L 153 294 L 156 293 L 154 293 L 150 290 Z M 79 279 L 79 281 L 78 282 L 79 287 L 79 285 L 81 284 L 79 281 Z M 404 272 L 401 272 L 400 273 L 396 273 L 399 278 Z M 353 268 L 358 278 L 357 276 L 357 271 L 359 273 L 361 277 L 359 273 Z M 385 268 L 386 270 L 389 273 L 391 272 L 386 267 Z M 335 252 L 337 254 L 339 252 Z M 276 248 L 277 250 L 280 250 L 283 251 L 285 253 L 285 251 L 281 251 Z M 336 247 L 331 249 L 333 250 Z M 310 238 L 308 239 L 309 244 L 309 241 Z M 325 237 L 326 239 L 321 245 L 321 244 L 319 242 L 321 245 L 321 247 L 319 250 L 324 245 L 325 242 L 327 242 L 329 244 L 327 242 L 327 239 Z M 175 236 L 174 238 L 178 239 L 177 236 Z M 316 232 L 318 235 L 319 233 Z M 291 232 L 290 234 L 284 234 Z M 356 229 L 353 230 L 353 233 L 356 233 Z M 194 227 L 193 230 L 196 230 L 197 231 L 200 231 L 197 231 Z M 186 224 L 184 224 L 180 226 L 183 227 L 183 232 L 183 228 Z M 197 222 L 201 223 L 201 221 Z M 284 215 L 286 216 L 286 219 L 290 222 L 288 222 L 290 222 L 299 216 L 298 213 L 298 215 L 297 217 L 291 219 L 286 218 L 286 216 L 289 209 L 287 208 L 286 213 Z M 431 202 L 432 212 L 434 210 L 433 208 L 433 206 Z M 305 200 L 308 203 L 312 203 L 311 208 L 313 202 L 312 200 Z M 326 194 L 329 198 L 332 196 L 328 196 Z M 203 191 L 201 193 L 199 192 L 197 195 L 200 193 L 201 193 Z M 164 191 L 167 190 L 168 192 L 170 192 L 171 193 L 173 193 L 175 191 L 172 190 L 171 192 L 168 191 L 169 189 Z M 327 187 L 324 187 L 325 192 L 325 189 Z M 210 185 L 206 188 L 204 186 L 203 188 L 207 188 Z M 178 185 L 175 186 L 177 187 L 178 190 Z M 278 183 L 279 186 L 277 188 Z M 163 178 L 161 178 L 160 181 Z M 339 180 L 344 184 L 350 179 L 352 181 L 350 179 L 345 180 L 344 177 L 345 180 L 344 182 L 342 183 L 341 181 Z M 151 176 L 148 180 L 152 178 Z M 227 174 L 227 178 L 225 180 L 229 176 Z M 173 174 L 175 177 L 174 180 L 177 179 L 175 178 L 175 176 Z M 270 169 L 270 172 L 267 172 L 271 173 Z M 179 172 L 182 169 L 178 170 Z M 166 169 L 165 172 L 167 173 L 167 176 L 167 174 L 169 172 Z M 194 167 L 197 167 L 198 165 L 195 165 Z M 177 162 L 174 163 L 172 167 L 177 167 L 174 167 L 175 164 L 177 164 Z M 184 161 L 182 161 L 180 166 L 182 166 L 184 164 Z M 187 163 L 190 161 L 192 163 L 202 163 L 202 165 L 203 162 L 204 162 L 209 158 L 204 162 L 194 159 L 196 158 L 194 158 L 192 161 L 187 160 Z M 231 150 L 229 151 L 227 151 L 223 154 L 216 155 L 218 156 L 218 160 L 219 155 L 222 155 L 226 152 Z M 362 93 L 362 124 L 377 124 L 362 123 Z M 365 132 L 360 132 L 343 118 L 322 105 L 292 93 L 255 86 L 220 86 L 182 93 L 154 103 L 125 118 L 90 145 L 67 170 L 46 202 L 29 242 L 22 276 L 22 310 L 25 328 L 33 354 L 48 384 L 68 411 L 96 436 L 74 408 L 61 383 L 54 363 L 48 329 L 48 305 L 52 279 L 61 250 L 72 227 L 90 200 L 116 172 L 137 155 L 169 136 L 202 123 L 233 116 L 251 114 L 300 116 L 329 122 L 363 134 Z M 499 77 L 496 79 L 499 84 L 497 113 L 496 113 L 494 115 L 492 120 L 493 125 L 496 130 L 488 170 L 486 183 L 487 185 L 490 187 L 496 189 L 506 189 L 511 188 L 515 186 L 518 183 L 517 174 L 515 169 L 514 158 L 512 153 L 510 142 L 510 136 L 508 130 L 508 128 L 511 124 L 511 116 L 506 111 L 507 82 L 505 81 L 505 79 L 503 77 Z" fill="#FCB50A" fill-rule="evenodd" clip-rule="evenodd"/><path d="M5 0H396L487 287H1016L1104 0H1506L991 1490H517ZM577 568 604 655C656 821 704 984 755 1167C805 984 853 821 902 655L929 568Z" transform="translate(532.000,412.347) scale(0.11053316,-0.11053316)" fill="#1C2124" fill-rule="nonzero"/><path d="M440 1490H96V0H440Z" transform="translate(696.805,412.347) scale(0.11053316,-0.11053316)" fill="#1C2124" fill-rule="nonzero"/><path d="M96 0H440V615C440 732 509 800 603 800C696 800 759 734 759 631V0H1088V622C1088 729 1150 800 1248 800C1341 800 1407 739 1407 627V0H1752V703C1752 938 1603 1079 1395 1079C1244 1079 1110 1004 1056 866C1013 1004 891 1079 750 1079C613 1079 488 1009 427 858V1056H96Z" transform="translate(756.051,412.347) scale(0.11053316,-0.11053316)" fill="#1C2124" fill-rule="nonzero"/><path d="M419 -18C568 -18 663 34 726 148H730V0H1066V711C1066 944 897 1079 590 1079C284 1079 111 943 96 714H416C423 786 482 832 578 832C669 832 725 789 725 726V721C725 658 656 643 467 627C242 609 57 532 57 295C57 85 208 -18 419 -18ZM524 207C440 207 383 246 383 311C383 380 449 418 541 432C626 446 691 459 728 476V380C728 276 639 207 524 207Z" transform="translate(960.205,412.347) scale(0.11053316,-0.11053316)" fill="#1C2124" fill-rule="nonzero"/><path d="M772 -24C1171 -24 1446 231 1446 609V811H796V547H1094C1091 393 972 290 783 290C548 290 414 458 414 744C414 1031 547 1200 779 1200C940 1200 1042 1116 1069 984H1435C1402 1301 1117 1514 766 1514C361 1514 52 1231 52 744C52 279 339 -24 772 -24Z" transform="translate(1084.666,412.347) scale(0.11053316,-0.11053316)" fill="#DB0423" fill-rule="nonzero"/><path d="M608 -24C939 -24 1163 193 1163 528C1163 861 939 1080 608 1080C277 1080 52 861 52 528C52 193 277 -24 608 -24ZM608 250C487 250 401 349 401 528C401 706 488 806 608 806C728 806 815 706 815 528C815 349 728 250 608 250Z" transform="translate(1250.355,412.347) scale(0.11053316,-0.11053316)" fill="#DB0423" fill-rule="nonzero"/></svg>